<svg xmlns="http://www.w3.org/2000/svg" width="38" height="38" viewBox="0 0 38 38" fill="none">
<path d="M27 9V30H11V32H29V9H27Z" fill="white"/>
<path fill-rule="evenodd" clip-rule="evenodd" d="M9 6H26V29H9V25H7V23H9V19H7V17H9V13H7V11H9V6ZM23.5474 20.5439C24.665 21.438 23.6929 22.533 23.0876 23.2148C23.0197 23.2913 22.9561 23.363 22.9009 23.4282C22.8817 23.4522 22.863 23.4765 22.8443 23.5006C22.4759 23.9771 22.1287 24.4261 18.6739 22.5331C17.182 21.6877 14.1982 19.052 13.2037 17.6596C10.7678 14.1519 11.4341 13.5556 11.9298 13.1119L11.9604 13.0845C12.0057 13.0426 12.0537 12.9974 12.1042 12.9498C12.7735 12.3189 13.8736 11.2819 14.8447 12.438C16.5853 14.4272 16.6847 15.2726 16.088 15.9191C15.9636 16.0931 15.8766 16.1801 15.802 16.2547C15.7274 16.3293 15.6653 16.3915 15.5907 16.5158C15.545 16.5615 15.5001 16.6052 15.4566 16.6475C14.8841 17.2041 14.5558 17.5234 15.9885 19.0023L16.4858 19.4996C17.6296 20.6434 18.6242 20.4942 19.3204 19.8477C19.5474 19.6207 19.65 19.4766 19.8553 19.1884L19.9171 19.1017C20.5139 18.4055 21.1604 18.6542 23.5474 20.5439Z" fill="white"/>
</svg>
