<svg width="38" height="38" viewBox="0 0 38 38" fill="none" xmlns="http://www.w3.org/2000/svg">
<path d="M27 9V30H11V32H29V9H27Z" fill="white"/>
<path fill-rule="evenodd" clip-rule="evenodd" d="M9 6H26V29H9V25H7V23H9V19H7V17H9V13H7V11H9V6ZM21.0011 22.6359L20.1081 20.782C19.9159 20.3859 19.6675 20.0976 19.2386 20.2734L18.3925 20.5875C17.7152 20.9015 17.3777 20.5875 17.0378 20.114L15.5144 16.6476C15.3222 16.2515 15.423 15.8789 15.8519 15.7031L17.0355 15.2297C17.4644 15.0515 17.3964 14.6812 17.2042 14.2851L16.1894 12.3961C15.9972 12 15.6034 11.9039 15.1745 12.0797C14.3167 12.4336 13.6066 12.989 13.1449 13.8117C12.592 14.8 12.8542 16.1687 12.9702 16.7738L12.9761 16.8047C13.0886 17.393 13.4824 18.4242 13.9909 19.4812C14.4995 20.5406 14.9449 21.3726 15.3456 21.8437C15.3848 21.89 15.4294 21.9443 15.479 22.0047C15.9343 22.5586 16.8167 23.6322 17.8839 23.8922C18.8542 24.1265 19.9019 23.9297 20.7597 23.5758C21.1909 23.407 21.1909 23.0344 21.0011 22.6359Z" fill="white"/>
</svg>
