<svg width="38" height="38" viewBox="0 0 38 38" fill="none" xmlns="http://www.w3.org/2000/svg">
<path fill-rule="evenodd" clip-rule="evenodd" d="M30 8H8V6H32V27H6V6H8L7.99984 23H29.9998L30 8Z" fill="white"/>
<path d="M12 30H26V32H12V30Z" fill="white"/>
<path d="M18 28H20V30H18V28Z" fill="white"/>
<path fill-rule="evenodd" clip-rule="evenodd" d="M22.6148 14.4C22.6148 15.6222 21.637 17.1704 20.9037 17.1704C20.7407 17.1704 20.4148 17.1704 20.4963 16.5185C20.5778 16.2741 20.9852 15.2148 21.8 13.0963L21.8815 12.8519L20.7407 12.363L20.5778 12.7704C20.1704 12.363 19.5185 12.2 18.7852 12.2C16.9926 12.2 15.6889 14.4 15.6889 15.8667C15.6889 17.4148 16.9111 18.3926 18.0519 18.3926C18.6222 18.3926 19.1926 18.1481 19.6815 17.7407C20.0074 18.1481 20.4963 18.3926 21.0667 18.3926C22.6148 18.3926 24.0815 16.1111 24.0815 14.3185C24.0815 13.0148 23.5926 10 19.1926 10C15.2 10 13 13.0148 13 15.8667C13 18.8 15.5259 21 18.7852 21C21.637 21 23.0222 19.5333 23.1852 19.2074L23.2667 19.0444L22.4519 18.4741L22.2074 18.3111L22.0444 18.5556C22.0444 18.5556 21.1481 19.7778 18.7037 19.7778C16.1778 19.7778 14.2222 18.1481 14.2222 15.9481C14.2222 14.1556 15.5259 11.3852 19.0296 11.3852C21.3926 11.3852 22.6148 12.4444 22.6148 14.4ZM18.7037 13.5852C17.7259 13.5852 16.8296 15.0519 16.8296 15.9481C16.8296 16.6815 17.4 17.1704 17.8889 17.1704C18.6222 17.1704 19.1111 16.3556 19.3556 15.9481C19.437 15.7037 19.6 15.2148 19.763 14.8074C19.8444 14.4 19.763 13.9926 19.6 13.8296C19.437 13.6667 19.1111 13.5852 18.7037 13.5852Z" fill="white"/>
</svg>
