<svg width="38" height="38" viewBox="0 0 38 38" fill="none" xmlns="http://www.w3.org/2000/svg">
<path fill-rule="evenodd" clip-rule="evenodd" d="M9 15H31V23H9V15ZM24 18H26V20H24V18ZM22 18H13V20H22V18Z" fill="white"/>
<path fill-rule="evenodd" clip-rule="evenodd" d="M9 15H31V23H9V15ZM24 18H26V20H24V18ZM22 18H13V20H22V18Z" fill="white"/>
<path fill-rule="evenodd" clip-rule="evenodd" d="M9 5H31V13H9V5ZM24 8H26V10H24V8ZM22 8H13V10H22V8Z" fill="white"/>
<path d="M31.1522 26C33.838 26 36.0446 27.9859 36.4174 30.5652H38L35.337 33.6087L32.6739 30.5652H34.4391C34.0967 29.0663 32.7576 27.9402 31.1522 27.9402C30.0489 27.9402 29.075 28.4804 28.4587 29.2946L27.1576 27.8109C28.1315 26.7 29.562 26 31.1522 26ZM30.8478 36.2261C28.1696 36.2261 25.9554 34.2402 25.5826 31.6609H24L26.663 28.6174C27.5533 29.6293 28.4359 30.6489 29.3261 31.6609H27.5609C27.9033 33.1598 29.2424 34.2859 30.8478 34.2859C31.9511 34.2859 32.925 33.7457 33.5413 32.9315L34.8424 34.4152C33.8685 35.5261 32.4457 36.2261 30.8478 36.2261Z" fill="white"/>
<path fill-rule="evenodd" clip-rule="evenodd" d="M27.4604 25C26.78 25.3987 26.17 25.9039 25.654 26.4924L24.498 27.811L19.9388 33H9V25H27.4604ZM22 28H13V30H22V28Z" fill="white"/>
<path d="M31 27.9437C29.9597 27.9908 29.0465 28.5182 28.4587 29.2946C28.5106 29.226 28.5654 29.1593 28.6223 29.0947C28.6403 29.0743 28.6585 29.0541 28.677 29.0341C28.8374 28.8605 29.0156 28.703 29.2088 28.5652C29.2226 28.5554 29.2364 28.5457 29.2504 28.5361C29.3339 28.4783 29.4201 28.4242 29.5088 28.374C29.953 28.1224 30.4593 27.9682 31 27.9437Z" fill="white"/>
<path d="M28.2027 33C28.1482 32.9309 28.0963 32.8595 28.0472 32.7862C27.8212 32.4488 27.654 32.0686 27.5609 31.6609C27.6743 32.1573 27.8973 32.6127 28.2027 33Z" fill="white"/>
<path d="M29.3261 31.6609C28.881 31.1549 28.4378 30.647 27.9946 30.1391L27.9939 30.1383C27.5509 29.6308 27.1079 29.123 26.663 28.6174C26.9684 28.9645 27.2732 29.3126 27.5774 29.6609L27.9921 30.136L27.9946 30.1391C28.3398 30.5347 28.6853 30.9303 29.0314 31.325L29.2456 31.569L29.3261 31.6609Z" fill="white"/>
</svg>
