<svg xmlns="http://www.w3.org/2000/svg" width="38" height="38" viewBox="0 0 38 38" fill="none">
<path fill-rule="evenodd" clip-rule="evenodd" d="M32.7171 14.1164L30.98 14.5902C30.8974 14.613 30.8209 14.6542 30.7564 14.7107C30.6919 14.7673 30.6411 14.8377 30.6076 14.9167C30.5742 14.9957 30.5591 15.0812 30.5634 15.1669C30.5678 15.2525 30.5914 15.3361 30.6326 15.4113L31.5169 16.9904C31.0789 17.6179 30.5337 18.1631 29.9062 18.6011L28.3271 17.7168L28.0745 17.6537C27.9474 17.6487 27.8224 17.6864 27.7194 17.7608C27.6163 17.8353 27.5412 17.9421 27.506 18.0642L27.0322 19.8013C26.2583 19.9274 25.4691 19.9274 24.6952 19.8013L24.2214 18.0642C24.1862 17.9421 24.1111 17.8353 24.008 17.7608C23.905 17.6864 23.78 17.6487 23.6529 17.6537L23.4003 17.7168L21.8212 18.6011C21.1937 18.1631 20.6485 17.6179 20.2105 16.9904L21.0948 15.4113C21.136 15.3361 21.1596 15.2525 21.164 15.1669C21.1683 15.0812 21.1532 14.9957 21.1197 14.9167C21.0863 14.8377 21.0355 14.7673 20.971 14.7107C20.9065 14.6542 20.83 14.613 20.7474 14.5902L19.0103 14.1164C18.8842 13.3425 18.8842 12.5533 19.0103 11.7793L20.7474 11.3056C20.83 11.2828 20.9065 11.2416 20.971 11.185C21.0355 11.1285 21.0863 11.0581 21.1197 10.9791C21.1532 10.9001 21.1683 10.8146 21.164 10.7289C21.1596 10.6433 21.136 10.5597 21.0948 10.4845L20.2105 8.90535C20.6485 8.27791 21.1937 7.73266 21.8212 7.29466L23.4003 8.17896L23.6529 8.24213C23.78 8.2471 23.905 8.20936 24.008 8.13494C24.1111 8.06051 24.1862 7.9537 24.2214 7.83156L24.6952 6.09453C25.4691 5.96838 26.2583 5.96838 27.0322 6.09453L27.506 7.83156C27.5412 7.9537 27.6163 8.06051 27.7194 8.13494C27.8224 8.20936 27.9474 8.2471 28.0745 8.24213L28.3271 8.17896L29.9062 7.29466C30.5337 7.73266 31.0789 8.27791 31.5169 8.90535L30.6326 10.4845C30.5914 10.5597 30.5678 10.6433 30.5634 10.7289C30.5591 10.8146 30.5742 10.9001 30.6076 10.9791C30.6411 11.0581 30.6919 11.1285 30.7564 11.185C30.8209 11.2416 30.8974 11.2828 30.98 11.3056L32.7171 11.7793C32.8432 12.5533 32.8432 13.3425 32.7171 14.1164ZM24.2845 15.3113C24.752 15.6236 25.3015 15.7903 25.8637 15.7903C26.6176 15.7903 27.3405 15.4908 27.8736 14.9578C28.4066 14.4247 28.7061 13.7017 28.7061 12.9479C28.7061 12.3857 28.5394 11.8362 28.2271 11.3687C27.9147 10.9013 27.4708 10.537 26.9514 10.3218C26.4321 10.1067 25.8605 10.0504 25.3092 10.1601C24.7578 10.2698 24.2513 10.5405 23.8538 10.938C23.4563 11.3355 23.1856 11.842 23.0759 12.3934C22.9662 12.9447 23.0225 13.5163 23.2377 14.0356C23.4528 14.555 23.8171 14.9989 24.2845 15.3113ZM28.3914 30.5707C29.6085 29.1997 31.5632 26.9978 29.3159 25.1999C24.5159 21.3999 23.2159 20.8999 22.0159 22.2999C21.9723 22.3609 21.931 22.4188 21.8916 22.4741C21.4788 23.0537 21.2723 23.3434 20.8159 23.7999C19.4159 25.0999 17.4159 25.3999 15.1159 23.0999L14.1159 22.0999C11.2349 19.1259 11.8951 18.484 13.0462 17.3647C13.1337 17.2796 13.224 17.1917 13.3159 17.0999C13.4659 16.8499 13.5909 16.7249 13.7409 16.5749C13.8909 16.4249 14.0659 16.2499 14.3159 15.8999C15.5159 14.5999 15.3159 12.8999 11.8159 8.89989C9.86307 6.57511 7.65084 8.66048 6.30496 9.92917C6.20352 10.0248 6.107 10.1158 6.01588 10.1999C5.99554 10.2182 5.97499 10.2366 5.95429 10.2551C4.95754 11.1472 3.6176 12.3464 8.51588 19.3999C10.5159 22.1999 16.5159 27.4999 19.5159 29.1999C26.463 33.0066 27.1611 32.1037 27.9019 31.1457C27.9395 31.097 27.9772 31.0482 28.0159 30.9999C28.1271 30.8685 28.2546 30.7249 28.3914 30.5707Z" fill="white"/>
</svg>

