<svg width="38" height="38" viewBox="0 0 38 38" fill="none" xmlns="http://www.w3.org/2000/svg">
<path d="M21.0215 25.0742L22.8077 28.7824C23.1874 29.5794 23.1874 30.3248 22.3248 30.6623C20.609 31.3702 18.5135 31.764 16.5726 31.2952C14.4379 30.7753 12.6729 28.6278 11.7623 27.5198C11.663 27.399 11.5739 27.2905 11.4955 27.1979C10.6939 26.2556 9.80316 24.5914 8.78586 22.4724C7.76857 20.3581 6.98098 18.2954 6.75596 17.1187C6.75211 17.0986 6.74817 17.078 6.74414 17.057C6.5122 15.8466 5.9876 13.1089 7.09349 11.1321C8.01703 9.48661 9.43749 8.37555 11.1533 7.66766C12.0112 7.31606 12.7988 7.50827 13.1832 8.30054L15.2131 12.0791C15.5975 12.8713 15.7335 13.6121 14.8756 13.9683L12.5081 14.9153C11.6502 15.2669 11.4486 16.0123 11.8331 16.8046L14.8803 23.7381C15.56 24.6851 16.2351 25.3133 17.5899 24.6851L19.2823 24.0569C20.1402 23.7053 20.6371 24.2819 21.0215 25.0742Z" fill="white"/>
<path fill-rule="evenodd" clip-rule="evenodd" d="M31.1324 17.5198L29.3954 17.9936C29.3127 18.0164 29.2362 18.0576 29.1717 18.1141C29.1073 18.1707 29.0564 18.2411 29.023 18.3201C28.9896 18.3991 28.9744 18.4846 28.9788 18.5703C28.9831 18.6559 29.0068 18.7395 29.048 18.8147L29.9323 20.3938C29.4943 21.0213 28.949 21.5665 28.3216 22.0045L26.7424 21.1202L26.4898 21.0571C26.3628 21.0521 26.2378 21.0898 26.1347 21.1643C26.0317 21.2387 25.9565 21.3455 25.9213 21.4676L25.4476 23.2047C24.6736 23.3308 23.8844 23.3308 23.1105 23.2047L22.6367 21.4676C22.6015 21.3455 22.5264 21.2387 22.4234 21.1643C22.3203 21.0898 22.1953 21.0521 22.0683 21.0571L21.8156 21.1202L20.2365 22.0045C19.609 21.5665 19.0638 21.0213 18.6258 20.3938L19.5101 18.8147C19.5513 18.7395 19.575 18.6559 19.5793 18.5703C19.5836 18.4846 19.5685 18.3991 19.5351 18.3201C19.5017 18.2411 19.4508 18.1707 19.3863 18.1141C19.3218 18.0576 19.2454 18.0164 19.1627 17.9936L17.4257 17.5198C17.2995 16.7459 17.2995 15.9567 17.4257 15.1827L19.1627 14.709C19.2454 14.6862 19.3218 14.645 19.3863 14.5884C19.4508 14.5319 19.5017 14.4615 19.5351 14.3825C19.5685 14.3035 19.5836 14.218 19.5793 14.1323C19.575 14.0467 19.5513 13.9631 19.5101 13.8879L18.6258 12.3088C19.0638 11.6813 19.609 11.1361 20.2365 10.6981L21.8156 11.5824L22.0683 11.6455C22.1953 11.6505 22.3203 11.6128 22.4234 11.5383C22.5264 11.4639 22.6015 11.3571 22.6367 11.235L23.1105 9.49793C23.8844 9.37178 24.6736 9.37178 25.4476 9.49793L25.9213 11.235C25.9565 11.3571 26.0317 11.4639 26.1347 11.5383C26.2378 11.6128 26.3628 11.6505 26.4898 11.6455L26.7424 11.5824L28.3216 10.6981C28.949 11.1361 29.4943 11.6813 29.9323 12.3088L29.048 13.8879C29.0068 13.9631 28.9831 14.0467 28.9788 14.1323C28.9744 14.218 28.9896 14.3035 29.023 14.3825C29.0564 14.4615 29.1073 14.5319 29.1717 14.5884C29.2362 14.645 29.3127 14.6862 29.3954 14.709L31.1324 15.1827C31.2585 15.9567 31.2585 16.7459 31.1324 17.5198ZM22.6999 18.7147C23.1673 19.027 23.7169 19.1937 24.279 19.1937C25.0329 19.1937 25.7559 18.8942 26.2889 18.3612C26.822 17.8281 27.1214 17.1051 27.1214 16.3513C27.1214 15.7891 26.9547 15.2396 26.6424 14.7721C26.3301 14.3047 25.8862 13.9404 25.3668 13.7252C24.8474 13.5101 24.2759 13.4538 23.7245 13.5635C23.1731 13.6732 22.6667 13.9439 22.2691 14.3414C21.8716 14.7389 21.6009 15.2454 21.4912 15.7968C21.3816 16.3481 21.4378 16.9197 21.653 17.439C21.8681 17.9584 22.2324 18.4023 22.6999 18.7147Z" fill="white"/>
</svg>
