<svg width="38" height="38" viewBox="0 0 38 38" fill="none" xmlns="http://www.w3.org/2000/svg">
<path d="M29.1522 26C31.838 26 34.0446 27.9859 34.4174 30.5652H36L33.337 33.6087L30.6739 30.5652H32.4391C32.0967 29.0663 30.7576 27.9402 29.1522 27.9402C28.0489 27.9402 27.075 28.4804 26.4587 29.2946L25.1576 27.8109C26.1315 26.7 27.562 26 29.1522 26Z" fill="white"/>
<path d="M28.8478 36.2261C26.1696 36.2261 23.9554 34.2402 23.5826 31.6609H22L24.663 28.6174C25.1082 29.1234 25.5514 29.6313 25.9946 30.1392C26.4378 30.6471 26.881 31.1549 27.3261 31.6609H25.5609C25.9033 33.1598 27.2424 34.2859 28.8478 34.2859C29.9511 34.2859 30.925 33.7457 31.5413 32.9315L32.8424 34.4152C31.8685 35.5261 30.4457 36.2261 28.8478 36.2261Z" fill="white"/>
<path d="M11 8V29H9V6H27V8H11Z" fill="white"/>
<path d="M8 5V26H6V3H24V5H8Z" fill="white"/>
<path fill-rule="evenodd" clip-rule="evenodd" d="M29 9V24.003C26.8728 24.063 24.9663 25.0233 23.6548 26.5192L19 32H12V9H29ZM26 13V14H15V13H26ZM21 16H15V17H21V16ZM15 22H21V23H15V22ZM26 19H15V20H26V19Z" fill="white"/>
</svg>
