<svg width="38" height="38" viewBox="0 0 38 38" fill="none" xmlns="http://www.w3.org/2000/svg">
<path d="M11 29V8H27V6H9V29H11Z" fill="white"/>
<path d="M8 26V5H24V3H6V26H8Z" fill="white"/>
<path d="M30.7143 21L36.4997 26L30.7143 31V28.1429L25 28.1429V23.8571H30.7143V21Z" fill="white"/>
<path fill-rule="evenodd" clip-rule="evenodd" d="M29 22H23V30H29V32H12V9H29V22ZM19 13H14V14H19V13ZM14 16H19V17H14V16ZM19 19H14V20H19V19ZM14 22H19V23H14V22ZM27 13H22V14H27V13ZM22 16H27V17H22V16ZM27 19H22V20H27V19Z" fill="white"/>
</svg>
