<svg width="38" height="79" viewBox="0 0 38 79" fill="none" xmlns="http://www.w3.org/2000/svg">
<g clip-path="url(#clip0_22_64)">
<path d="M19 37.5C29.2173 37.5 37.5 29.2173 37.5 19C37.5 8.78273 29.2173 0.5 19 0.5C8.78273 0.5 0.5 8.78273 0.5 19C0.5 29.2173 8.78273 37.5 19 37.5Z" stroke="#C8C8C8" stroke-miterlimit="10"/>
<path d="M29.5656 27.5856H8.43438C8.3831 27.586 8.33266 27.5726 8.28824 27.547C8.24382 27.5214 8.20702 27.4844 8.18162 27.4399C8.15623 27.3953 8.14316 27.3448 8.14375 27.2935C8.14435 27.2423 8.15858 27.1921 8.185 27.1481L18.7506 8.55437C18.7751 8.50966 18.8112 8.47236 18.8551 8.44637C18.899 8.42039 18.949 8.40668 19 8.40668C19.051 8.40668 19.101 8.42039 19.1449 8.44637C19.1888 8.47236 19.2249 8.50966 19.2494 8.55437L29.815 27.1481C29.8414 27.1921 29.8557 27.2423 29.8562 27.2935C29.8568 27.3448 29.8438 27.3953 29.8184 27.4399C29.793 27.4844 29.7562 27.5214 29.7118 27.547C29.6673 27.5726 29.6169 27.586 29.5656 27.5856Z" stroke="#C8C8C8"/>
<path d="M19 24.4619V24.755" stroke="#C8C8C8" stroke-linecap="round"/>
<path d="M19 14.5088V22.1344" stroke="#C8C8C8" stroke-linecap="round"/>
<path d="M19 78.5C29.2173 78.5 37.5 70.2173 37.5 60C37.5 49.7827 29.2173 41.5 19 41.5C8.78273 41.5 0.5 49.7827 0.5 60C0.5 70.2173 8.78273 78.5 19 78.5Z" stroke="#F49D56" stroke-miterlimit="10"/>
<path d="M29.5656 68.5856H8.43438C8.3831 68.586 8.33266 68.5726 8.28824 68.547C8.24382 68.5214 8.20702 68.4844 8.18162 68.4399C8.15623 68.3953 8.14316 68.3448 8.14375 68.2935C8.14435 68.2423 8.15858 68.1921 8.185 68.1481L18.7506 49.5544C18.7751 49.5097 18.8112 49.4724 18.8551 49.4464C18.899 49.4204 18.949 49.4067 19 49.4067C19.051 49.4067 19.101 49.4204 19.1449 49.4464C19.1888 49.4724 19.2249 49.5097 19.2494 49.5544L29.815 68.1481C29.8414 68.1921 29.8557 68.2423 29.8562 68.2935C29.8568 68.3448 29.8438 68.3953 29.8184 68.4399C29.793 68.4844 29.7562 68.5214 29.7118 68.547C29.6673 68.5726 29.6169 68.586 29.5656 68.5856Z" stroke="#F49D56"/>
<path d="M19 65.4619V65.755" stroke="#F49D56" stroke-linecap="round"/>
<path d="M19 55.5088V63.1344" stroke="#F49D56" stroke-linecap="round"/>
</g>
<defs>
<clipPath id="clip0_22_64">
<rect width="38" height="79" fill="white"/>
</clipPath>
</defs>
</svg>
